<svg width="24" height="24" viewBox="0 0 24 24" fill="none"
  xmlns="http://www.w3.org/2000/svg">
  <path d="M18.5333 18H5.46668C5.19027 18 4.96411 18.225 4.96411 18.5V19.5C4.96411 19.775 5.19027 20 5.46668 20H18.5333C18.8098 20 19.0359 19.775 19.0359 19.5V18.5C19.0359 18.225 18.8098 18 18.5333 18ZM20.5436 8C19.7112 8 19.0359 8.67188 19.0359 9.5C19.0359 9.72188 19.0862 9.92812 19.1741 10.1188L16.9 11.475C16.4163 11.7625 15.7912 11.6 15.5117 11.1125L12.9517 6.65625C13.2878 6.38125 13.5077 5.96875 13.5077 5.5C13.5077 4.67188 12.8324 4 12 4C11.1676 4 10.4923 4.67188 10.4923 5.5C10.4923 5.96875 10.7122 6.38125 11.0483 6.65625L8.48835 11.1125C8.20879 11.6 7.58059 11.7625 7.10001 11.475L4.82905 10.1188C4.91386 9.93125 4.96726 9.72188 4.96726 9.5C4.96726 8.67188 4.29194 8 3.45956 8C2.62719 8 1.94873 8.67188 1.94873 9.5C1.94873 10.3281 2.62405 11 3.45642 11C3.53809 11 3.61976 10.9875 3.69828 10.975L5.96924 17H18.0308L20.3017 10.975C20.3803 10.9875 20.4619 11 20.5436 11C21.376 11 22.0513 10.3281 22.0513 9.5C22.0513 8.67188 21.376 8 20.5436 8Z" fill="currentColor"/>
</svg>
